<svg data-v-423bf9ae="" xmlns="http://www.w3.org/2000/svg" viewBox="0 0 425 90" class="iconLeft"><!----><!----><!----><g data-v-423bf9ae="" id="5c150a66-5478-44b8-8ca3-e463ce506ff6" fill="white" transform="matrix(4.608294768854844,0,0,4.608294768854844,168.55348577805233,-6.474651012344957)"><path d="M2.48 14.88L2.48 9.03L5.85 9.03L5.85 14.88L7.21 14.88L7.21 8.75L5.59 7.81L3.47 7.81L2.48 8.39L2.48 4.66L1.12 4.66L1.12 14.88ZM10.09 17.68L11.42 17.68L15.32 7.88L13.96 7.88L11.98 12.87L11.96 12.87L9.97 7.88L8.61 7.88L11.31 14.56ZM21.18 14.95L22.81 14.01L22.81 8.75L21.18 7.81L19.07 7.81L18.07 8.39L17.74 7.81L16.72 7.81L16.72 17.68L18.07 17.68L18.07 14.38L19.07 14.95ZM18.07 9.03L21.45 9.03L21.45 13.73L18.07 13.73ZM30.58 13.66L26.40 13.66L26.40 11.86L30.58 11.86L30.58 8.75L28.95 7.81L26.67 7.81L25.05 8.75L25.05 13.94L26.67 14.88L30.58 14.88ZM26.40 9.03L29.22 9.03L29.22 10.64L26.40 10.64ZM36.72 9.10L36.72 7.88L35.17 7.88L34.17 8.46L33.84 7.88L32.82 7.88L32.82 14.88L34.17 14.88L34.17 9.10ZM39.89 14.88L41.30 14.88L41.30 13.66L39.62 13.66L39.62 4.66L38.26 4.66L38.26 13.94ZM44.06 7.88L42.70 7.88L42.70 14.88L44.06 14.88ZM42.63 6.16L44.13 6.16L44.13 4.66L42.63 4.66ZM45.74 9.10L47.03 9.10L47.03 14.88L48.38 14.88L48.38 9.10L50.06 9.10L50.06 7.88L48.38 7.88L48.38 5.88L50.06 5.88L50.06 4.66L48.65 4.66L47.03 5.60L47.03 7.88L45.74 7.88ZM51.18 9.10L52.47 9.10L52.47 13.94L54.10 14.88L55.51 14.88L55.51 13.66L53.83 13.66L53.83 9.10L55.51 9.10L55.51 7.88L53.83 7.88L53.83 5.92L52.47 6.71L52.47 7.88L51.18 7.88Z"></path></g><!----><g data-v-423bf9ae="" id="5193fda1-68e6-4475-a589-e92fa6038e44" transform="matrix(4.803586662404586,0,0,4.803586662404586,0.14261340152661717,-31.22538662899096)" stroke="none" fill="white"><path d="M16 19.586l7.496-12.954H8.504zM7.496 12.414L0 25.368h14.992zM24.504 12.414l-7.496 12.954H32z"></path></g><!----></svg>